<svg width="193" height="46" viewBox="0 0 193 46" fill="none" xmlns="http://www.w3.org/2000/svg">
<path fill-rule="evenodd" clip-rule="evenodd" d="M23 46C35.7025 46 46 35.7025 46 23C46 10.2975 35.7025 0 23 0C10.2975 0 0 10.2975 0 23C0 35.7025 10.2975 46 23 46Z" fill="white"/>
<path d="M16.2708 14.2133L11.7903 15.1467C11.7903 15.1467 18.3133 17.6955 17.7643 19.8139C17.2667 21.7338 11.7903 23.361 11.7903 23.361C11.7903 23.361 16.5197 26.8458 14.5906 28.2149C12.6615 29.5839 10.2967 30.6418 8.98992 33.8155C8.17002 35.8067 9.55 39.0428 13.2838 39.0428C15.919 38.9664 18.6977 36.4292 18.6977 36.4292C18.6977 36.4292 14.9639 38.1094 13.2838 37.3626C11.6036 36.6159 11.4169 35.4957 12.1636 33.6288C12.9104 31.762 17.5776 30.7906 17.5776 27.6548C17.5776 25.4146 15.7107 23.5477 15.7107 23.5477C15.7107 23.5477 19.8357 22.0726 20.3779 20.1873C21.0809 17.743 16.2708 14.2133 16.2708 14.2133Z" fill="black"/>
<path d="M31.3926 29.335C35.313 25.2279 31.0192 14.2133 28.0322 8.98603C27.3921 7.86589 25.7919 7.11914 25.7919 7.11914C25.7919 7.11914 33.2595 7.11914 35.6864 8.61264C36.8065 9.30195 37.2105 10.1162 37.1799 11.2263C37.1512 12.2697 36.0598 14.2133 36.0598 14.2133C36.0598 14.2133 35.6713 11.0182 34.3796 9.91946C32.9518 8.705 29.5257 9.17272 29.5257 9.17272C32.9554 15.4849 36.8065 25.9067 32.6994 30.8285C30.2343 33.7826 26.6523 35.8691 22.8049 35.8691C19.4445 35.8691 17.1573 34.4025 17.5776 31.5753C17.9142 29.3109 19.8178 28.4409 20.3779 28.2149C20.938 27.9889 23.925 27.4681 26.352 29.7084C28.7789 31.9487 29.8991 30.8996 31.3926 29.335Z" fill="black"/>
<path d="M62.756 32.116C61.6579 32.116 60.6139 31.8453 59.624 31.304C58.6341 30.7627 58.1392 29.7187 58.1392 28.172C58.1392 27.1667 58.3789 26.3624 58.8584 25.7592C59.3533 25.156 60.0493 24.8544 60.9464 24.8544C61.9981 24.8544 62.6013 25.2488 62.756 26.0376C61.9672 26.084 61.4259 26.3547 61.132 26.8496C60.8536 27.3445 60.7144 27.9091 60.7144 28.5432C60.7144 29.2083 60.9077 29.7264 61.2944 30.0976C61.6811 30.4688 62.1528 30.6544 62.7096 30.6544C63.2045 30.6544 63.6763 30.5075 64.1248 30.2136C64.5888 29.9197 64.9677 29.4712 65.2616 28.868C65.5555 28.2648 65.7024 27.5379 65.7024 26.6872C65.7024 25.7437 65.4395 24.8699 64.9136 24.0656C64.4032 23.2459 63.6376 22.6581 62.6168 22.3024C63.4365 22.0704 64.148 21.7069 64.7512 21.212C65.3544 20.7016 65.8107 20.1448 66.12 19.5416C66.4293 18.9229 66.584 18.3352 66.584 17.7784C66.584 17.2061 66.4293 16.7499 66.12 16.4096C65.8261 16.0539 65.3931 15.876 64.8208 15.876C64.264 15.876 63.8155 16.0461 63.4752 16.3864C63.1504 16.7112 62.988 17.1443 62.988 17.6856C62.988 18.0568 63.0576 18.4048 63.1968 18.7296C63.3515 19.0544 63.5757 19.2555 63.8696 19.3328C63.2973 19.8587 62.7096 20.1216 62.1064 20.1216C61.6269 20.1216 61.2248 19.9515 60.9 19.6112C60.5907 19.2555 60.436 18.7683 60.436 18.1496C60.436 17.4536 60.6448 16.8427 61.0624 16.3168C61.4955 15.7755 62.0755 15.3579 62.8024 15.064C63.5293 14.7701 64.3413 14.6232 65.2384 14.6232C66.1509 14.6232 66.932 14.7779 67.5816 15.0872C68.2312 15.3965 68.7184 15.8064 69.0432 16.3168C69.3835 16.8272 69.5536 17.3917 69.5536 18.0104C69.5536 18.8147 69.2829 19.6035 68.7416 20.3768C68.2003 21.1501 67.4115 21.7997 66.3752 22.3256C67.3496 22.6504 68.0765 23.1531 68.556 23.8336C69.0509 24.4987 69.2984 25.272 69.2984 26.1536C69.2984 27.1125 69.02 28.056 68.4632 28.984C67.9219 29.8965 67.1485 30.6467 66.1432 31.2344C65.1533 31.8221 64.0243 32.116 62.756 32.116ZM75.6012 32.4176C74.6268 32.4176 73.7684 32.2475 73.026 31.9072C72.2836 31.5669 71.7113 31.0952 71.3092 30.492C70.9071 29.8733 70.706 29.1619 70.706 28.3576C70.706 27.6771 70.8452 27.0584 71.1236 26.5016C71.4175 25.9448 71.8041 25.504 72.2836 25.1792C72.7785 24.8544 73.3199 24.692 73.9076 24.692C74.4489 24.692 74.9052 24.8312 75.2764 25.1096C75.6476 25.3725 75.8796 25.7437 75.9724 26.2232C75.1681 26.2232 74.5263 26.4397 74.0468 26.8728C73.5673 27.2904 73.3276 27.8627 73.3276 28.5896C73.3276 29.2547 73.5287 29.7883 73.9308 30.1904C74.3329 30.5925 74.8665 30.7936 75.5316 30.7936C76.3513 30.7936 77.0241 30.5229 77.55 29.9816C78.0913 29.4248 78.362 28.7288 78.362 27.8936C78.362 27.1667 78.1609 26.4784 77.7588 25.8288C77.3567 25.1792 76.7535 24.3904 75.9492 23.4624C75.114 22.5035 74.4799 21.6837 74.0468 21.0032C73.6292 20.3072 73.4204 19.5493 73.4204 18.7296C73.4204 17.9253 73.6447 17.2061 74.0932 16.572C74.5417 15.9224 75.1604 15.412 75.9492 15.0408C76.738 14.6696 77.6273 14.484 78.6172 14.484C79.87 14.484 80.8676 14.7779 81.61 15.3656C82.3679 15.9533 82.7468 16.7421 82.7468 17.732C82.7468 18.3816 82.5844 18.9075 82.2596 19.3096C81.9348 19.7117 81.5095 19.9128 80.9836 19.9128C80.3959 19.9128 79.9241 19.6731 79.5684 19.1936C79.8623 18.9771 80.0943 18.6909 80.2644 18.3352C80.4345 17.9795 80.5196 17.6083 80.5196 17.2216C80.5196 16.7267 80.3727 16.3323 80.0788 16.0384C79.7849 15.7445 79.3828 15.5976 78.8724 15.5976C78.2537 15.5976 77.7433 15.8219 77.3412 16.2704C76.9545 16.7035 76.7612 17.2603 76.7612 17.9408C76.7612 18.5595 76.9391 19.1395 77.2948 19.6808C77.6505 20.2067 78.2073 20.8872 78.9652 21.7224C79.5839 22.3875 80.0788 22.9597 80.45 23.4392C80.8367 23.9187 81.1615 24.4755 81.4244 25.1096C81.7028 25.7283 81.842 26.4011 81.842 27.128C81.842 28.1179 81.5636 29.0149 81.0068 29.8192C80.4655 30.6235 79.7153 31.2576 78.7564 31.7216C77.8129 32.1856 76.7612 32.4176 75.6012 32.4176ZM95.1149 16.6416H94.8365C93.46 16.6416 92.3851 16.9896 91.6117 17.6856C90.8539 18.3661 90.4749 19.5803 90.4749 21.328C90.4749 21.9003 90.5291 22.3024 90.6373 22.5344C90.7456 22.7509 90.7997 22.8747 90.7997 22.9056C89.9645 22.9056 89.3381 22.7355 88.9205 22.3952C88.5184 22.0395 88.3173 21.4595 88.3173 20.6552C88.3173 19.5571 88.588 18.5595 89.1293 17.6624C89.6707 16.7499 90.5291 16.0152 91.7045 15.4584C92.8955 14.9016 94.4035 14.6232 96.2285 14.6232C97.2493 14.6232 98.3475 14.716 99.5229 14.9016C100.513 15.0717 101.394 15.1568 102.168 15.1568C103.158 15.1568 104.055 14.9944 104.859 14.6696C104.828 15.6749 104.573 16.4173 104.093 16.8968C103.614 17.3763 102.902 17.616 101.959 17.616C101.464 17.616 100.969 17.5773 100.474 17.5C99.9792 17.4227 99.2755 17.2912 98.3629 17.1056L95.1613 32H91.8205L95.1149 16.6416ZM102.665 32.1392C101.521 32.1392 100.631 31.8453 99.9973 31.2576C99.3631 30.6544 99.0461 29.7187 99.0461 28.4504C99.0461 27.3832 99.2549 26.2077 99.6725 24.924C100.09 23.6403 100.771 22.5344 101.714 21.6064C102.658 20.6629 103.856 20.1912 105.31 20.1912C107.011 20.1912 107.862 20.9336 107.862 22.4184C107.862 23.2845 107.615 24.0811 107.12 24.808C106.625 25.5349 105.967 26.1227 105.148 26.5712C104.328 27.0043 103.454 27.2517 102.526 27.3136C102.495 27.7776 102.48 28.0869 102.48 28.2416C102.48 28.9995 102.611 29.5176 102.874 29.796C103.137 30.0589 103.562 30.1904 104.15 30.1904C104.985 30.1904 105.697 29.9971 106.284 29.6104C106.888 29.2237 107.545 28.636 108.256 27.8472H109.045C107.328 30.7085 105.202 32.1392 102.665 32.1392ZM102.712 26.2C103.284 26.1691 103.825 25.968 104.336 25.5968C104.862 25.2256 105.279 24.7539 105.588 24.1816C105.913 23.6093 106.076 23.0061 106.076 22.372C106.076 21.7379 105.882 21.4208 105.496 21.4208C104.939 21.4208 104.39 21.908 103.848 22.8824C103.323 23.8568 102.944 24.9627 102.712 26.2ZM111.036 32.1392C110.154 32.1392 109.419 31.8376 108.832 31.2344C108.244 30.6312 107.95 29.6877 107.95 28.404C107.95 27.2595 108.174 26.0608 108.623 24.808C109.087 23.5397 109.767 22.4725 110.664 21.6064C111.577 20.7248 112.66 20.284 113.912 20.284C114.546 20.284 115.018 20.3923 115.328 20.6088C115.637 20.8253 115.792 21.1115 115.792 21.4672V21.6296L116.047 20.4H119.388L117.717 28.288C117.655 28.52 117.624 28.7675 117.624 29.0304C117.624 29.6955 117.941 30.028 118.576 30.028C119.009 30.028 119.38 29.8269 119.689 29.4248C120.014 29.0227 120.269 28.4968 120.455 27.8472H121.429C120.857 29.5176 120.145 30.6544 119.295 31.2576C118.46 31.8453 117.617 32.1392 116.766 32.1392C116.116 32.1392 115.59 31.9613 115.188 31.6056C114.802 31.2344 114.57 30.7008 114.492 30.0048C114.044 30.6389 113.541 31.1571 112.984 31.5592C112.443 31.9459 111.793 32.1392 111.036 32.1392ZM112.544 29.8888C112.93 29.8888 113.309 29.7109 113.68 29.3552C114.067 28.984 114.33 28.4813 114.469 27.8472L115.583 22.604C115.583 22.4029 115.505 22.2096 115.351 22.024C115.196 21.8229 114.956 21.7224 114.632 21.7224C114.013 21.7224 113.456 22.0859 112.961 22.8128C112.466 23.5243 112.08 24.3904 111.801 25.4112C111.523 26.4165 111.384 27.3059 111.384 28.0792C111.384 28.8525 111.492 29.3475 111.708 29.564C111.94 29.7805 112.219 29.8888 112.544 29.8888ZM134.569 32.1392C133.625 32.1392 132.929 31.8917 132.481 31.3968C132.048 30.8864 131.831 30.26 131.831 29.5176C131.831 29.1928 131.87 28.8293 131.947 28.4272C132.025 28.0096 132.102 27.6075 132.179 27.2208C132.272 26.8341 132.334 26.5867 132.365 26.4784C132.489 25.9371 132.605 25.4035 132.713 24.8776C132.821 24.3517 132.875 23.9264 132.875 23.6016C132.875 22.8128 132.597 22.4184 132.04 22.4184C131.638 22.4184 131.282 22.6195 130.973 23.0216C130.664 23.4083 130.416 23.9187 130.23 24.5528L128.653 32H125.312L127.006 23.996C127.052 23.8104 127.075 23.6171 127.075 23.416C127.075 22.7355 126.843 22.3952 126.379 22.3952C125.946 22.3952 125.567 22.5963 125.242 22.9984C124.933 23.3851 124.686 23.9032 124.5 24.5528L122.922 32H119.582L122.041 20.4H125.382L125.126 21.6064C125.915 20.7248 126.859 20.284 127.957 20.284C129.318 20.284 130.114 20.9491 130.346 22.2792C131.197 20.9645 132.272 20.3072 133.571 20.3072C134.36 20.3072 134.986 20.5237 135.45 20.9568C135.914 21.3899 136.146 22.0472 136.146 22.9288C136.146 23.3773 136.092 23.88 135.984 24.4368C135.876 24.9781 135.721 25.6432 135.52 26.432C135.396 26.9115 135.28 27.3832 135.172 27.8472C135.079 28.2957 135.033 28.6515 135.033 28.9144C135.033 29.2237 135.102 29.4635 135.242 29.6336C135.381 29.8037 135.621 29.8888 135.961 29.8888C136.425 29.8888 136.796 29.7264 137.074 29.4016C137.353 29.0613 137.631 28.5432 137.91 27.8472H138.884C138.312 29.5485 137.647 30.6931 136.889 31.2808C136.146 31.8531 135.373 32.1392 134.569 32.1392ZM135.983 37.8C135.132 37.8 134.444 37.5603 133.918 37.0808C133.377 36.6168 133.106 35.9904 133.106 35.2016C133.106 34.552 133.292 34.0184 133.663 33.6008C134.034 33.1832 134.49 32.8507 135.032 32.6032C135.573 32.3557 136.269 32.0928 137.12 31.8144L139.695 19.6112C140.113 17.6933 140.809 16.3864 141.783 15.6904C142.757 14.9789 143.871 14.6232 145.124 14.6232C146.284 14.6232 147.266 14.8165 148.07 15.2032C148.874 15.5899 149.277 16.2859 149.277 17.2912C149.277 17.9408 149.099 18.4203 148.743 18.7296C148.403 19.0235 147.97 19.1704 147.444 19.1704C147.042 19.1704 146.709 19.0776 146.446 18.892C146.183 18.6909 146.052 18.3661 146.052 17.9176C146.052 17.6237 146.121 17.3608 146.261 17.1288C146.415 16.8968 146.609 16.7808 146.841 16.7808C146.949 16.7808 147.011 16.7885 147.026 16.804C147.011 16.4947 146.887 16.2627 146.655 16.108C146.438 15.9533 146.137 15.876 145.75 15.876C145.07 15.876 144.521 16.1235 144.103 16.6184C143.701 17.1133 143.43 17.7397 143.291 18.4976L142.897 20.4H144.753L144.567 21.328H142.711L140.066 33.856C139.757 35.3099 139.223 36.3307 138.465 36.9184C137.708 37.5061 136.88 37.8 135.983 37.8ZM146.4 32.1392C145.657 32.1392 145.054 31.9072 144.59 31.4432C144.142 30.9792 143.917 30.2832 143.917 29.3552C143.917 28.9685 143.979 28.4659 144.103 27.8472L145.681 20.4H149.021L147.351 28.288C147.289 28.52 147.258 28.7675 147.258 29.0304C147.258 29.3397 147.328 29.564 147.467 29.7032C147.622 29.8269 147.869 29.8888 148.209 29.8888C148.658 29.8888 149.076 29.7032 149.462 29.332C149.849 28.9453 150.127 28.4504 150.297 27.8472H151.272C150.7 29.5176 149.965 30.6544 149.068 31.2576C148.171 31.8453 147.281 32.1392 146.4 32.1392ZM135.333 35.7352C135.596 35.7352 135.859 35.5883 136.122 35.2944C136.37 35.0005 136.555 34.5443 136.679 33.9256L136.957 32.58C136.169 32.8275 135.542 33.1368 135.078 33.508C134.614 33.8947 134.382 34.3277 134.382 34.8072C134.382 35.1475 134.49 35.3872 134.707 35.5264C134.924 35.6656 135.132 35.7352 135.333 35.7352ZM154.408 37.8C153.666 37.8 153.047 37.6067 152.552 37.22C152.057 36.8333 151.81 36.2765 151.81 35.5496C151.81 34.668 152.165 33.9565 152.877 33.4152C153.588 32.8893 154.493 32.4485 155.591 32.0928L155.87 30.8632C155.081 31.7139 154.153 32.1392 153.086 32.1392C152.204 32.1392 151.469 31.8376 150.882 31.2344C150.294 30.6312 150 29.6877 150 28.404C150 27.2595 150.224 26.0608 150.673 24.808C151.137 23.5397 151.817 22.4725 152.714 21.6064C153.627 20.7248 154.71 20.284 155.962 20.284C156.596 20.284 157.068 20.3923 157.378 20.6088C157.687 20.8253 157.842 21.1115 157.842 21.4672V21.6064L158.097 20.4H161.438L159.141 31.1648C159.883 30.9173 160.479 30.5461 160.927 30.0512C161.376 29.5563 161.755 28.8216 162.064 27.8472H163.038C162.621 29.2237 162.056 30.2368 161.345 30.8864C160.633 31.5205 159.829 31.9536 158.932 32.1856L158.584 33.856C158.275 35.3563 157.741 36.3848 156.983 36.9416C156.225 37.5139 155.367 37.8 154.408 37.8ZM154.594 29.8888C154.949 29.8888 155.313 29.7264 155.684 29.4016C156.055 29.0768 156.31 28.636 156.45 28.0792L157.633 22.5808C157.633 22.3952 157.555 22.2096 157.401 22.024C157.246 21.8229 157.006 21.7224 156.682 21.7224C156.063 21.7224 155.506 22.0859 155.011 22.8128C154.516 23.5243 154.13 24.3904 153.851 25.4112C153.573 26.4165 153.434 27.3059 153.434 28.0792C153.434 28.8525 153.542 29.3475 153.758 29.564C153.99 29.7805 154.269 29.8888 154.594 29.8888ZM153.874 35.9904C154.137 35.9904 154.392 35.8125 154.64 35.4568C154.887 35.1011 155.081 34.5907 155.22 33.9256L155.359 33.2528C153.843 33.8096 153.086 34.4669 153.086 35.2248C153.086 35.4259 153.155 35.6037 153.294 35.7584C153.434 35.9131 153.627 35.9904 153.874 35.9904ZM170.435 32.1392C169.492 32.1392 168.796 31.8917 168.347 31.3968C167.914 30.8864 167.698 30.26 167.698 29.5176C167.698 29.1928 167.736 28.8293 167.814 28.4272C167.891 28.0096 167.968 27.6075 168.046 27.2208C168.139 26.8341 168.2 26.5867 168.231 26.4784C168.355 25.9371 168.471 25.4035 168.579 24.8776C168.688 24.3517 168.742 23.9264 168.742 23.6016C168.742 22.8128 168.463 22.4184 167.907 22.4184C167.504 22.4184 167.149 22.6195 166.839 23.0216C166.53 23.4083 166.283 23.9187 166.097 24.5528L164.519 32H161.179L164.543 16.224L167.976 15.76L166.723 21.6064C167.497 20.7403 168.401 20.3072 169.438 20.3072C170.227 20.3072 170.853 20.5237 171.317 20.9568C171.781 21.3899 172.013 22.0472 172.013 22.9288C172.013 23.3773 171.959 23.88 171.851 24.4368C171.742 24.9781 171.588 25.6432 171.387 26.432C171.263 26.9115 171.147 27.3832 171.039 27.8472C170.946 28.2957 170.899 28.6515 170.899 28.9144C170.899 29.2237 170.969 29.4635 171.108 29.6336C171.247 29.8037 171.487 29.8888 171.827 29.8888C172.291 29.8888 172.663 29.7264 172.941 29.4016C173.219 29.0613 173.498 28.5432 173.776 27.8472H174.751C174.178 29.5485 173.513 30.6931 172.755 31.2808C172.013 31.8531 171.24 32.1392 170.435 32.1392ZM175.954 32.1392C175.165 32.1392 174.578 31.8995 174.191 31.42C173.82 30.9405 173.634 30.3064 173.634 29.5176C173.634 29.1155 173.681 28.7056 173.773 28.288L175.258 21.328H174.493L174.678 20.4H175.444L176.14 17.1984L179.573 16.7344C179.434 17.3221 179.357 17.6701 179.341 17.7784C179.233 18.2115 179.048 19.0853 178.785 20.4H180.177L179.991 21.328H178.599L177.114 28.288C177.037 28.6283 176.998 28.8989 176.998 29.1C176.998 29.6568 177.269 29.9352 177.81 29.9352C178.089 29.9352 178.29 29.912 178.413 29.8656C178.104 30.7627 177.741 31.3659 177.323 31.6752C176.905 31.9845 176.449 32.1392 175.954 32.1392Z" fill="white"/>
<path d="M188.463 14.7976C189.032 14.8228 189.179 15.2806 189.188 15.4948H189.985C189.949 14.6632 189.322 14.155 188.45 14.155C187.466 14.155 186.737 14.7388 186.737 16.0576C186.737 16.8724 187.15 17.8384 188.445 17.8384C189.433 17.8384 189.962 17.1454 189.976 16.5994H189.179C189.166 16.8472 188.979 17.179 188.454 17.2042C187.871 17.1874 187.626 16.759 187.626 16.0576C187.626 14.8438 188.196 14.806 188.463 14.7976ZM188.516 11.7988C186.06 11.7988 184.067 13.6804 184.067 15.9988C184.067 18.3172 186.06 20.1988 188.516 20.1988C190.972 20.1988 192.966 18.3172 192.966 15.9988C192.966 13.6804 190.972 11.7988 188.516 11.7988ZM188.516 19.3588C186.554 19.3588 184.957 17.851 184.957 15.9988C184.957 14.1466 186.554 12.6388 188.516 12.6388C190.479 12.6388 192.076 14.1466 192.076 15.9988C192.076 17.851 190.479 19.3588 188.516 19.3588Z" fill="white"/>
</svg>
